<svg xmlns="http://www.w3.org/2000/svg" width="26" height="23" viewBox="0 0 26 23">
    <defs>
        <filter id="7nazlre55a">
            <feColorMatrix in="SourceGraphic" values="0 0 0 0 0.820675 0 0 0 0 0.868143 0 0 0 0 1.000000 0 0 0 1.000000 0"/>
        </filter>
    </defs>
    <g fill="none" fill-rule="evenodd">
        <g>
            <g filter="url(#7nazlre55a)" transform="translate(-34 -552) translate(-6)">
                <g>
                    <g fill="#000" fill-rule="nonzero">
                        <path d="M18.257 13h-3.514c-.961 0-1.743.759-1.743 1.692v2.616c0 .933.782 1.692 1.743 1.692h3.514c.961 0 1.743-.759 1.743-1.692v-2.616C20 13.76 19.218 13 18.257 13zm.475 4.308c0 .256-.217.461-.475.461h-3.514c-.264 0-.475-.21-.475-.461v-2.616c0-.256.217-.461.475-.461h3.514c.264 0 .475.21.475.461v2.616z" transform="translate(40 310) translate(0 242)"/>
                        <path d="M26 7.536c0-.113-.027-.221-.085-.318L22.047.328C21.936.13 21.723 0 21.495 0H4.5c-.229 0-.441.124-.553.328L.085 7.218C.032 7.315 0 7.423 0 7.536c0 1.545.92 2.869 2.231 3.455v11.363c0 .355.287.646.638.646H23.126c.35 0 .637-.29.637-.646V11.072c0-.027 0-.048-.005-.07C25.076 10.415 26 9.086 26 7.536zM4.872 1.297h16.251l3.023 5.388H1.854l3.018-5.388zm13.632 6.675c-.202 1.162-1.206 2.045-2.412 2.045s-2.21-.883-2.412-2.045h4.824zm-6.179 0c-.202 1.162-1.206 2.045-2.412 2.045s-2.21-.883-2.417-2.045h4.83zm-11.007 0h4.829c-.202 1.162-1.212 2.045-2.418 2.045-1.206.005-2.21-.883-2.411-2.045zm9.392 13.736H7.045v-6.97c0-.506.403-.92.908-.92h1.854c.5 0 .909.408.909.92v6.97h-.006zm11.778 0H11.985v-6.97c0-1.217-.977-2.213-2.183-2.213H7.948c-1.201 0-2.184.99-2.184 2.213v6.976H3.506V11.309c.075.005.15.005.223.005 1.286 0 2.423-.662 3.092-1.668.67 1.006 1.807 1.668 3.092 1.668 1.286 0 2.418-.662 3.092-1.668.67 1.006 1.807 1.668 3.087 1.668 1.286 0 2.417-.662 3.087-1.668.669 1.006 1.806 1.668 3.092 1.668.074 0 .143-.005.217-.005v10.4zm-.217-11.686c-1.206 0-2.21-.882-2.412-2.045h4.829c-.207 1.157-1.211 2.045-2.417 2.045z" transform="translate(40 310) translate(0 242)"/>
                    </g>
                </g>
            </g>
        </g>
    </g>
</svg>
