<svg xmlns="http://www.w3.org/2000/svg" width="16" height="16" viewBox="0 0 16 16">
    <defs>
        <filter id="v4b6w4qfba">
            <feColorMatrix in="SourceGraphic" values="0 0 0 0 0.164706 0 0 0 0 0.345098 0 0 0 0 0.709804 0 0 0 1.000000 0"/>
        </filter>
    </defs>
    <g fill="none" fill-rule="evenodd">
        <g>
            <g>
                <g filter="url(#v4b6w4qfba)" transform="translate(-610 -768) translate(447 77) translate(163 687)">
                    <g>
                        <path fill="#000" fill-rule="nonzero" d="M13.657 10.343c-.871-.871-1.909-1.516-3.04-1.907 1.212-.834 2.008-2.231 2.008-3.811C12.625 2.075 10.55 0 8 0S3.375 2.075 3.375 4.625c0 1.58.796 2.977 2.008 3.811-1.131.39-2.168 1.036-3.04 1.907C.833 11.854 0 13.863 0 16h1.25c0-3.722 3.028-6.75 6.75-6.75s6.75 3.028 6.75 6.75H16c0-2.137-.832-4.146-2.343-5.657zM8 8C6.139 8 4.625 6.486 4.625 4.625S6.139 1.25 8 1.25s3.375 1.514 3.375 3.375S9.861 8 8 8z" transform="translate(0 4)"/>
                    </g>
                </g>
            </g>
        </g>
    </g>
</svg>
