<svg xmlns="http://www.w3.org/2000/svg" width="19" height="22" viewBox="0 0 19 22">
    <defs>
        <filter id="9szcj5o6ca">
            <feColorMatrix in="SourceGraphic" values="0 0 0 0 0.820675 0 0 0 0 0.868143 0 0 0 0 1.000000 0 0 0 1.000000 0"/>
        </filter>
        <filter id="zhsl44qinb">
            <feColorMatrix in="SourceGraphic" values="0 0 0 0 0.847000 0 0 0 0 0.847000 0 0 0 0 0.847000 0 0 0 1.000000 0"/>
        </filter>
    </defs>
    <g fill="none" fill-rule="evenodd">
        <g>
            <g filter="url(#9szcj5o6ca)" transform="translate(-38 -366) translate(0 -2)">
                <g filter="url(#zhsl44qinb)" transform="translate(36 310)">
                    <g>
                        <path fill="#000" fill-rule="nonzero" d="M14.06 11h-3.42V3.885l2.234 2.23c.445.444 1.167.444 1.612 0 .445-.444.445-1.165 0-1.61L10.306.334C10.092.12 9.802 0 9.5 0c-.302 0-.592.12-.806.333l-4.18 4.173c-.288.287-.4.706-.295 1.099.105.393.413.7.806.805.393.105.813-.008 1.101-.295l2.234-2.23V11H4.94C2.213 11.003.003 13.209 0 15.931v4.931C0 21.491.51 22 1.14 22c.63 0 1.14-.51 1.14-1.138v-4.931c.002-1.466 1.192-2.653 2.66-2.655h3.42v7.586c0 .629.51 1.138 1.14 1.138.63 0 1.14-.51 1.14-1.138v-7.586h3.42c1.468.002 2.658 1.19 2.66 2.655v4.931c0 .629.51 1.138 1.14 1.138.63 0 1.14-.51 1.14-1.138v-4.931c-.003-2.722-2.213-4.928-4.94-4.931z" transform="translate(2 58)"/>
                    </g>
                </g>
            </g>
        </g>
    </g>
</svg>
