<svg xmlns="http://www.w3.org/2000/svg" width="22" height="21" viewBox="0 0 22 21">
    <defs>
        <filter id="ggf55lml4a">
            <feColorMatrix in="SourceGraphic" values="0 0 0 0 0.820675 0 0 0 0 0.868143 0 0 0 0 1.000000 0 0 0 1.000000 0"/>
        </filter>
    </defs>
    <g fill="none" fill-rule="evenodd">
        <g>
            <g filter="url(#ggf55lml4a)" transform="translate(-36 -490) translate(0 -2)">
                <g>
                    <g fill="#000" fill-rule="nonzero">
                        <path d="M6.445 7.93C2.891 7.93 0 10.86 0 14.464 0 18.068 2.891 21 6.445 21c3.554 0 6.446-2.932 6.446-6.535 0-3.604-2.892-6.536-6.446-6.536zm0 11.327c-2.606 0-4.726-2.15-4.726-4.792 0-2.643 2.12-4.793 4.726-4.793 2.607 0 4.727 2.15 4.727 4.793 0 2.642-2.12 4.792-4.727 4.792zm0-7.406c-1.421 0-2.578 1.172-2.578 2.614 0 1.441 1.157 2.614 2.578 2.614 1.422 0 2.578-1.173 2.578-2.614 0-1.442-1.156-2.614-2.578-2.614zm0 3.485c-.474 0-.86-.39-.86-.871 0-.48.386-.872.86-.872s.86.391.86.872c0 .48-.386.871-.86.871zM22 14.465C22 18.068 19.109 21 15.555 21c-.731 0-1.448-.123-2.132-.366-.448-.16-.684-.657-.527-1.11.157-.455.647-.694 1.095-.535.501.178 1.027.268 1.564.268 2.606 0 4.726-2.15 4.726-4.792 0-2.643-2.12-4.793-4.726-4.793-.563 0-1.114.1-1.636.295-.446.166-.94-.064-1.104-.516-.164-.451.063-.953.509-1.12.713-.266 1.464-.402 2.23-.402C19.11 7.93 22 10.861 22 14.465zM4.586 5.883c.158-1.605.894-3.09 2.075-4.18C7.85.605 9.391 0 11 0c1.6 0 3.135.599 4.321 1.687 1.178 1.079 1.92 2.551 2.087 4.146.05.478-.29.908-.763.959-.471.051-.895-.295-.946-.774-.257-2.437-2.277-4.275-4.699-4.275-2.44 0-4.462 1.854-4.703 4.312-.044.45-.418.785-.854.785-.029 0-.057-.001-.086-.004-.473-.048-.817-.474-.77-.953zm8.98.392c.046.479-.299.906-.77.953-.03.003-.058.004-.087.004-.436 0-.81-.335-.854-.785-.044-.446-.411-.783-.855-.783-.433 0-.8.327-.853.761-.058.478-.487.817-.959.757-.47-.06-.805-.495-.746-.972C8.602 4.905 9.702 3.92 11 3.92c1.331 0 2.434 1.012 2.565 2.354zm2.596 8.806c.335-.34.335-.893 0-1.232-.244-.248-.61-.323-.93-.192-.44.18-.94-.035-1.119-.482-.177-.446.035-.954.475-1.134.962-.394 2.057-.168 2.79.575 1.005 1.02 1.005 2.678 0 3.697-.494.5-1.152.766-1.822.766-.325 0-.654-.062-.968-.19-.44-.181-.652-.689-.475-1.135.178-.446.68-.662 1.119-.482.32.132.686.057.93-.191z" transform="translate(36 310) translate(0 182)"/>
                    </g>
                </g>
            </g>
        </g>
    </g>
</svg>
