<svg xmlns="http://www.w3.org/2000/svg" width="22" height="22" viewBox="0 0 22 22">
    <defs>
        <filter id="xoihdefepa">
            <feColorMatrix in="SourceGraphic" values="0 0 0 0 0.820675 0 0 0 0 0.868143 0 0 0 0 1.000000 0 0 0 1.000000 0"/>
        </filter>
        <filter id="3wskmv7jsb">
            <feColorMatrix in="SourceGraphic" values="0 0 0 0 1.000000 0 0 0 0 1.000000 0 0 0 0 1.000000 0 0 0 1.000000 0"/>
        </filter>
    </defs>
    <g fill="none" fill-rule="evenodd">
        <g>
            <g filter="url(#xoihdefepa)" transform="translate(-36 -428) translate(0 -2)">
                <g filter="url(#3wskmv7jsb)" transform="translate(36 310)">
                    <g>
                        <path fill="#231F20" fill-rule="nonzero" d="M8.5 0h-7C.671 0 0 .673 0 1.5v7C0 9.327.673 10 1.5 10h7c.827 0 1.5-.673 1.5-1.5v-7C10 .673 9.327 0 8.5 0zM9 8.5c0 .276-.224.5-.5.5h-7c-.276 0-.5-.225-.5-.5v-7c0-.276.224-.5.5-.5h7c.276 0 .5.225.5.5v7zM20.5 0h-7c-.827 0-1.5.673-1.5 1.5v7c0 .827.673 1.5 1.5 1.5h7c.827 0 1.5-.673 1.5-1.5v-7c0-.827-.673-1.5-1.5-1.5zm.5 8.5c0 .276-.224.5-.5.5h-7c-.276 0-.5-.225-.5-.5v-7c0-.276.224-.5.5-.5h7c.276 0 .5.225.5.5v7zM8.5 12h-7c-.828 0-1.5.673-1.5 1.5v7c0 .827.673 1.5 1.5 1.5h7c.827 0 1.5-.673 1.5-1.5v-7c0-.827-.673-1.5-1.5-1.5zm.5 8.5c0 .276-.224.5-.5.5h-7c-.276 0-.5-.224-.5-.5v-7c0-.276.224-.5.5-.5h7c.276 0 .5.224.5.5v7zM20.5 12h-7c-.827 0-1.5.673-1.5 1.5v7c0 .827.673 1.5 1.5 1.5h7c.827 0 1.5-.673 1.5-1.5v-7c0-.827-.673-1.5-1.5-1.5zm.5 8.5c0 .276-.224.5-.5.5h-7c-.276 0-.5-.224-.5-.5v-7c0-.276.224-.5.5-.5h7c.276 0 .5.224.5.5v7z" transform="translate(0 120)"/>
                    </g>
                </g>
            </g>
        </g>
    </g>
</svg>
