<svg xmlns="http://www.w3.org/2000/svg" width="26" height="18" viewBox="0 0 26 18">
    <defs>
        <filter id="stpplgqwua">
            <feColorMatrix in="SourceGraphic" values="0 0 0 0 1.000000 0 0 0 0 1.000000 0 0 0 0 1.000000 0 0 0 1.000000 0"/>
        </filter>
    </defs>
    <g fill="none" fill-rule="evenodd">
        <g>
            <g>
                <g filter="url(#stpplgqwua)" transform="translate(-946 -781) translate(447 77) translate(195 677)">
                    <g>
                        <path fill="#000" fill-rule="nonzero" d="M25.646 8.14L17.909.356c-.472-.475-1.238-.475-1.71 0s-.472 1.245 0 1.72l5.673 5.708H1.21C.54 7.784 0 8.328 0 9c0 .672.541 1.216 1.209 1.216h20.663L16.2 15.924c-.472.475-.472 1.245 0 1.72.236.237.546.356.855.356.31 0 .619-.119.855-.356l7.737-7.784c.472-.475.472-1.245 0-1.72z" transform="translate(304 27)"/>
                    </g>
                </g>
            </g>
        </g>
    </g>
</svg>
