<svg id="Layer_1" data-name="Layer 1" xmlns="http://www.w3.org/2000/svg" viewBox="0 0 500 150"><defs><style>.cls-1{fill:#fff;}</style></defs><path class="cls-1" d="M107.1,51.58h17.69A44.79,44.79,0,0,1,131,52a17,17,0,0,1,5.6,1.74,10.77,10.77,0,0,1,4,3.65,11.3,11.3,0,0,1,1.54,6.24,9.91,9.91,0,0,1-2.25,6.66A12.27,12.27,0,0,1,134,74.1v.13a13.69,13.69,0,0,1,4.26,1.31A11.45,11.45,0,0,1,141.51,78a10.53,10.53,0,0,1,2.11,3.52,12.4,12.4,0,0,1,.74,4.29,11.4,11.4,0,0,1-1.61,6.26,12.68,12.68,0,0,1-4.15,4.06,18.28,18.28,0,0,1-5.73,2.21,30.57,30.57,0,0,1-6.34.67H107.1Zm10.45,19h7.58a10.66,10.66,0,0,0,2.38-.27,6.71,6.71,0,0,0,2.11-.87,4.55,4.55,0,0,0,1.5-1.61,4.8,4.8,0,0,0,.57-2.41,4.2,4.2,0,0,0-2.27-4,8.39,8.39,0,0,0-2.28-.77,14.31,14.31,0,0,0-2.48-.23h-7.11Zm0,19.63h9.39a11.45,11.45,0,0,0,2.44-.26,6.43,6.43,0,0,0,2.25-.94,5.46,5.46,0,0,0,1.64-1.74,5.11,5.11,0,0,0,.64-2.62,4.18,4.18,0,0,0-.84-2.71A5.44,5.44,0,0,0,131,80.33a11,11,0,0,0-2.75-.73,19.55,19.55,0,0,0-2.75-.21h-7.91Z"/><path class="cls-1" d="M148,75.31A26.84,26.84,0,0,1,149.89,65a22.56,22.56,0,0,1,5.33-7.88,23.39,23.39,0,0,1,8.11-5,31.06,31.06,0,0,1,20.5,0,23.39,23.39,0,0,1,8.11,5A22.56,22.56,0,0,1,197.27,65a28.84,28.84,0,0,1,0,20.64,22.52,22.52,0,0,1-5.33,7.87,23.39,23.39,0,0,1-8.11,5,30.89,30.89,0,0,1-20.5,0,23.39,23.39,0,0,1-8.11-5,22.52,22.52,0,0,1-5.33-7.87A26.91,26.91,0,0,1,148,75.31Zm10.86,0a17.45,17.45,0,0,0,1,6.13,14.1,14.1,0,0,0,3,4.82,13.44,13.44,0,0,0,4.65,3.19,16.7,16.7,0,0,0,12.13,0,13.48,13.48,0,0,0,4.66-3.19,13.93,13.93,0,0,0,3-4.82,18.5,18.5,0,0,0,0-12.23,13.83,13.83,0,0,0-3-4.86,13.6,13.6,0,0,0-4.66-3.18,16.7,16.7,0,0,0-12.13,0,13.56,13.56,0,0,0-4.65,3.18,14,14,0,0,0-3,4.86A17.52,17.52,0,0,0,158.84,75.31Z"/><path class="cls-1" d="M206.28,51.58h14.21l20.17,33h.14v-33h10.45V99H237.58L216.87,65.25h-.13V99H206.28Z"/><path class="cls-1" d="M260.9,51.58h15.68a44.76,44.76,0,0,1,10.83,1.28A24.74,24.74,0,0,1,296.35,57a20.26,20.26,0,0,1,6.07,7.4,25,25,0,0,1,2.24,11.06,22.43,22.43,0,0,1-2.18,10.15A21.78,21.78,0,0,1,296.62,93a26.11,26.11,0,0,1-8.51,4.52A33,33,0,0,1,278,99H260.9Zm10.46,37.8h5.42a28.76,28.76,0,0,0,6.74-.74,14.32,14.32,0,0,0,5.39-2.44,11.76,11.76,0,0,0,3.59-4.49,16,16,0,0,0,1.31-6.81,13.27,13.27,0,0,0-1.31-6.06A12.1,12.1,0,0,0,289,64.58a15.57,15.57,0,0,0-5.19-2.51,23,23,0,0,0-6.27-.84h-6.16Z"/><path class="cls-1" d="M337,60a8.35,8.35,0,0,0-3.75-3.32,12,12,0,0,0-4.89-1,14.76,14.76,0,0,0-3.69.47,11,11,0,0,0-3.25,1.41A7.06,7.06,0,0,0,319.14,60a7.24,7.24,0,0,0-.87,3.62,7.47,7.47,0,0,0,.5,2.85,6,6,0,0,0,1.64,2.24,12.28,12.28,0,0,0,3.08,1.88,43.51,43.51,0,0,0,4.76,1.74q2.75.87,5.33,1.88a18.23,18.23,0,0,1,4.56,2.54,11.54,11.54,0,0,1,3.15,3.86,14.54,14.54,0,0,1-.24,12,13,13,0,0,1-3.72,4.32A16.1,16.1,0,0,1,332,99.4a23.19,23.19,0,0,1-6.24.84,24.25,24.25,0,0,1-4.15-.37,20.34,20.34,0,0,1-4-1.14,16.07,16.07,0,0,1-3.59-2,12.33,12.33,0,0,1-2.88-3l4.83-4a9.88,9.88,0,0,0,4.29,4A13.15,13.15,0,0,0,326.11,95a13,13,0,0,0,3.65-.54,11,11,0,0,0,3.32-1.57,8.61,8.61,0,0,0,2.41-2.58,6.65,6.65,0,0,0,.94-3.55,7.6,7.6,0,0,0-.74-3.59,6.6,6.6,0,0,0-2.28-2.38A17.84,17.84,0,0,0,329.53,79L324,77.12a34.2,34.2,0,0,1-4.69-1.85,14.46,14.46,0,0,1-3.72-2.54,11,11,0,0,1-2.48-3.62,12.89,12.89,0,0,1-.9-5.06,12.22,12.22,0,0,1,4.95-10.22,16.44,16.44,0,0,1,5.16-2.58,21.88,21.88,0,0,1,13.37.37,14.28,14.28,0,0,1,5.94,4.32Z"/><path class="cls-1" d="M384.48,99h-5.16L370.41,74.9h-.14L362.36,99H357L346.82,67.67h5.76l7.17,24.12h.13L368,67.67h5.5l8.24,24.12h.14L389,67.67h5.63Z"/><path class="cls-1" d="M400.09,71.69A14.77,14.77,0,0,1,405.82,68a19.94,19.94,0,0,1,6.74-1.18q7,0,10.05,3.29t3.08,10V93.6c0,.9.05,1.82.14,2.78s.2,1.85.33,2.65h-5a10.74,10.74,0,0,1-.3-2.38c0-.87,0-1.64,0-2.31h-.13a12.19,12.19,0,0,1-4.12,4,11.86,11.86,0,0,1-6.2,1.54,16.53,16.53,0,0,1-4.53-.6,11.33,11.33,0,0,1-3.68-1.77,8.82,8.82,0,0,1-2.51-2.92,8.29,8.29,0,0,1-.94-4,8.75,8.75,0,0,1,2-6.1,12.16,12.16,0,0,1,5-3.28,24.39,24.39,0,0,1,6.43-1.34c2.3-.18,4.42-.27,6.34-.27h2v-.94a6.38,6.38,0,0,0-2.05-5.16,8.57,8.57,0,0,0-5.73-1.74,15.29,15.29,0,0,0-5,.84,11.74,11.74,0,0,0-4.32,2.58ZM415.24,84a18.69,18.69,0,0,0-8,1.41A4.78,4.78,0,0,0,404.32,90a4.56,4.56,0,0,0,2,4.19,9.09,9.09,0,0,0,4.93,1.24,9.53,9.53,0,0,0,4-.77,8.28,8.28,0,0,0,2.84-2,8.83,8.83,0,0,0,1.75-3,12.31,12.31,0,0,0,.67-3.65V84Z"/><path class="cls-1" d="M435,67.67h5.23v4.55h.13a15.51,15.51,0,0,1,5-4,13.94,13.94,0,0,1,6.27-1.41,17.89,17.89,0,0,1,6.74,1.24,15.12,15.12,0,0,1,5.19,3.45,15.9,15.9,0,0,1,3.35,5.23,18.44,18.44,0,0,1,0,13.14,16,16,0,0,1-3.32,5.22,15,15,0,0,1-5,3.46,15.55,15.55,0,0,1-6.17,1.23A14.49,14.49,0,0,1,445,98a12,12,0,0,1-4.66-4.52h-.13v20.84H435Zm5.23,15.68a13.16,13.16,0,0,0,.77,4.59,10.5,10.5,0,0,0,5.76,6.16,12,12,0,0,0,9.18,0,10.52,10.52,0,0,0,3.52-2.47,10.84,10.84,0,0,0,2.25-3.69,14.07,14.07,0,0,0,0-9.18,10.84,10.84,0,0,0-2.25-3.69A10.69,10.69,0,0,0,456,72.59a12.15,12.15,0,0,0-9.18,0,10.9,10.9,0,0,0-3.52,2.48A10.66,10.66,0,0,0,441,78.76,13.16,13.16,0,0,0,440.24,83.35Z"/><path class="cls-1" d="M56,81.11h4.36l14.78,25.79-2.83,5-29.65.1L39.76,107,54.39,81.15H56Zm13.63,25.8-12-21h-.36L45.26,107l.1.17,24.12-.08Z"/><path class="cls-1" d="M54.24,69.17,39.65,43.27l2.86-4.93,29.65.1,2.83,5L60.2,69.17H54.39m15-26-24.12-.09-.1.18L57.08,64.37h.37l12-21Z"/><polygon class="cls-1" points="29.19 75.78 29.19 55.49 39.82 55.49 39.82 57 30.7 57 30.7 74.26 57.56 74.16 57.57 75.67 29.19 75.78"/><path class="cls-1" d="M38.3,58.83l-.53-.63a.24.24,0,0,1,0-.33l1.79-1.52a.23.23,0,0,0,0-.36l-1.75-1.35a.24.24,0,0,1,0-.33l.5-.65a.23.23,0,0,1,.33,0l3,2.33a.23.23,0,0,1,0,.36l-3,2.56A.25.25,0,0,1,38.3,58.83Z"/><polygon class="cls-1" points="85.08 94.34 74.45 94.34 74.45 92.83 83.57 92.83 83.57 75.56 56.71 75.67 56.7 74.16 85.08 74.05 85.08 94.34"/><path class="cls-1" d="M75.84,96.21l.53-.63a.23.23,0,0,0,0-.33l-1.79-1.52a.23.23,0,0,1,0-.36L76.32,92a.24.24,0,0,0,0-.33l-.5-.65a.23.23,0,0,0-.33-.05l-3,2.33a.24.24,0,0,0,0,.37l3,2.55A.24.24,0,0,0,75.84,96.21Z"/></svg>